<svg xmlns="http://www.w3.org/2000/svg" xmlns:xlink="http://www.w3.org/1999/xlink" width="600" height="400" viewBox="0 0 2400 1600">
<defs>
  <clipPath id="clip120">
    <rect x="0" y="0" width="2400" height="1600"></rect>
  </clipPath>
</defs>
<path clip-path="url(#clip120)" d="M0 1600 L2400 1600 L2400 0 L0 0  Z" fill="#ffffff" fill-rule="evenodd" fill-opacity="1"></path>
<defs>
  <clipPath id="clip121">
    <rect x="480" y="0" width="1681" height="1600"></rect>
  </clipPath>
</defs>
<path clip-path="url(#clip120)" d="M192.339 1486.45 L2352.76 1486.45 L2352.76 47.2441 L192.339 47.2441  Z" fill="#ffffff" fill-rule="evenodd" fill-opacity="1"></path>
<defs>
  <clipPath id="clip122">
    <rect x="192" y="47" width="2161" height="1440"></rect>
  </clipPath>
</defs>
<polyline clip-path="url(#clip122)" style="stroke:#000000; stroke-linecap:round; stroke-linejoin:round; stroke-width:2; stroke-opacity:0.1; fill:none" points="253.483,1486.45 253.483,47.2441 "></polyline>
<polyline clip-path="url(#clip122)" style="stroke:#000000; stroke-linecap:round; stroke-linejoin:round; stroke-width:2; stroke-opacity:0.1; fill:none" points="763.015,1486.45 763.015,47.2441 "></polyline>
<polyline clip-path="url(#clip122)" style="stroke:#000000; stroke-linecap:round; stroke-linejoin:round; stroke-width:2; stroke-opacity:0.1; fill:none" points="1272.55,1486.45 1272.55,47.2441 "></polyline>
<polyline clip-path="url(#clip122)" style="stroke:#000000; stroke-linecap:round; stroke-linejoin:round; stroke-width:2; stroke-opacity:0.1; fill:none" points="1782.08,1486.45 1782.08,47.2441 "></polyline>
<polyline clip-path="url(#clip122)" style="stroke:#000000; stroke-linecap:round; stroke-linejoin:round; stroke-width:2; stroke-opacity:0.1; fill:none" points="2291.61,1486.45 2291.61,47.2441 "></polyline>
<polyline clip-path="url(#clip120)" style="stroke:#000000; stroke-linecap:round; stroke-linejoin:round; stroke-width:4; stroke-opacity:1; fill:none" points="192.339,1486.45 2352.76,1486.45 "></polyline>
<polyline clip-path="url(#clip120)" style="stroke:#000000; stroke-linecap:round; stroke-linejoin:round; stroke-width:4; stroke-opacity:1; fill:none" points="253.483,1486.45 253.483,1467.55 "></polyline>
<polyline clip-path="url(#clip120)" style="stroke:#000000; stroke-linecap:round; stroke-linejoin:round; stroke-width:4; stroke-opacity:1; fill:none" points="763.015,1486.45 763.015,1467.55 "></polyline>
<polyline clip-path="url(#clip120)" style="stroke:#000000; stroke-linecap:round; stroke-linejoin:round; stroke-width:4; stroke-opacity:1; fill:none" points="1272.55,1486.45 1272.55,1467.55 "></polyline>
<polyline clip-path="url(#clip120)" style="stroke:#000000; stroke-linecap:round; stroke-linejoin:round; stroke-width:4; stroke-opacity:1; fill:none" points="1782.08,1486.45 1782.08,1467.55 "></polyline>
<polyline clip-path="url(#clip120)" style="stroke:#000000; stroke-linecap:round; stroke-linejoin:round; stroke-width:4; stroke-opacity:1; fill:none" points="2291.61,1486.45 2291.61,1467.55 "></polyline>
<path clip-path="url(#clip120)" d="M253.483 1517.37 Q249.872 1517.37 248.043 1520.93 Q246.237 1524.47 246.237 1531.6 Q246.237 1538.71 248.043 1542.27 Q249.872 1545.82 253.483 1545.82 Q257.117 1545.82 258.922 1542.27 Q260.751 1538.71 260.751 1531.6 Q260.751 1524.47 258.922 1520.93 Q257.117 1517.37 253.483 1517.37 M253.483 1513.66 Q259.293 1513.66 262.348 1518.27 Q265.427 1522.85 265.427 1531.6 Q265.427 1540.33 262.348 1544.94 Q259.293 1549.52 253.483 1549.52 Q247.673 1549.52 244.594 1544.94 Q241.538 1540.33 241.538 1531.6 Q241.538 1522.85 244.594 1518.27 Q247.673 1513.66 253.483 1513.66 Z" fill="#000000" fill-rule="nonzero" fill-opacity="1"></path><path clip-path="url(#clip120)" d="M753.293 1514.29 L771.649 1514.29 L771.649 1518.22 L757.575 1518.22 L757.575 1526.7 Q758.594 1526.35 759.612 1526.19 Q760.631 1526 761.649 1526 Q767.436 1526 770.816 1529.17 Q774.196 1532.34 774.196 1537.76 Q774.196 1543.34 770.723 1546.44 Q767.251 1549.52 760.932 1549.52 Q758.756 1549.52 756.487 1549.15 Q754.242 1548.78 751.835 1548.04 L751.835 1543.34 Q753.918 1544.47 756.14 1545.03 Q758.362 1545.58 760.839 1545.58 Q764.844 1545.58 767.182 1543.48 Q769.52 1541.37 769.52 1537.76 Q769.52 1534.15 767.182 1532.04 Q764.844 1529.94 760.839 1529.94 Q758.964 1529.94 757.089 1530.35 Q755.237 1530.77 753.293 1531.65 L753.293 1514.29 Z" fill="#000000" fill-rule="nonzero" fill-opacity="1"></path><path clip-path="url(#clip120)" d="M1247.23 1544.91 L1254.87 1544.91 L1254.87 1518.55 L1246.56 1520.21 L1246.56 1515.95 L1254.83 1514.29 L1259.5 1514.29 L1259.5 1544.91 L1267.14 1544.91 L1267.14 1548.85 L1247.23 1548.85 L1247.23 1544.91 Z" fill="#000000" fill-rule="nonzero" fill-opacity="1"></path><path clip-path="url(#clip120)" d="M1286.59 1517.37 Q1282.98 1517.37 1281.15 1520.93 Q1279.34 1524.47 1279.34 1531.6 Q1279.34 1538.71 1281.15 1542.27 Q1282.98 1545.82 1286.59 1545.82 Q1290.22 1545.82 1292.03 1542.27 Q1293.86 1538.71 1293.86 1531.6 Q1293.86 1524.47 1292.03 1520.93 Q1290.22 1517.37 1286.59 1517.37 M1286.59 1513.66 Q1292.4 1513.66 1295.45 1518.27 Q1298.53 1522.85 1298.53 1531.6 Q1298.53 1540.33 1295.45 1544.94 Q1292.4 1549.52 1286.59 1549.52 Q1280.78 1549.52 1277.7 1544.94 Q1274.64 1540.33 1274.64 1531.6 Q1274.64 1522.85 1277.7 1518.27 Q1280.78 1513.66 1286.59 1513.66 Z" fill="#000000" fill-rule="nonzero" fill-opacity="1"></path><path clip-path="url(#clip120)" d="M1757.27 1544.91 L1764.9 1544.91 L1764.9 1518.55 L1756.59 1520.21 L1756.59 1515.95 L1764.86 1514.29 L1769.53 1514.29 L1769.53 1544.91 L1777.17 1544.91 L1777.17 1548.85 L1757.27 1548.85 L1757.27 1544.91 Z" fill="#000000" fill-rule="nonzero" fill-opacity="1"></path><path clip-path="url(#clip120)" d="M1786.66 1514.29 L1805.02 1514.29 L1805.02 1518.22 L1790.95 1518.22 L1790.95 1526.7 Q1791.96 1526.35 1792.98 1526.19 Q1794 1526 1795.02 1526 Q1800.81 1526 1804.19 1529.17 Q1807.57 1532.34 1807.57 1537.76 Q1807.57 1543.34 1804.09 1546.44 Q1800.62 1549.52 1794.3 1549.52 Q1792.13 1549.52 1789.86 1549.15 Q1787.61 1548.78 1785.2 1548.04 L1785.2 1543.34 Q1787.29 1544.47 1789.51 1545.03 Q1791.73 1545.58 1794.21 1545.58 Q1798.21 1545.58 1800.55 1543.48 Q1802.89 1541.37 1802.89 1537.76 Q1802.89 1534.15 1800.55 1532.04 Q1798.21 1529.94 1794.21 1529.94 Q1792.33 1529.94 1790.46 1530.35 Q1788.61 1530.77 1786.66 1531.65 L1786.66 1514.29 Z" fill="#000000" fill-rule="nonzero" fill-opacity="1"></path><path clip-path="url(#clip120)" d="M2270.39 1544.91 L2286.7 1544.91 L2286.7 1548.85 L2264.76 1548.85 L2264.76 1544.91 Q2267.42 1542.16 2272.01 1537.53 Q2276.61 1532.88 2277.79 1531.53 Q2280.04 1529.01 2280.92 1527.27 Q2281.82 1525.51 2281.82 1523.82 Q2281.82 1521.07 2279.88 1519.33 Q2277.95 1517.6 2274.85 1517.6 Q2272.65 1517.6 2270.2 1518.36 Q2267.77 1519.13 2264.99 1520.68 L2264.99 1515.95 Q2267.82 1514.82 2270.27 1514.24 Q2272.72 1513.66 2274.76 1513.66 Q2280.13 1513.66 2283.33 1516.35 Q2286.52 1519.03 2286.52 1523.52 Q2286.52 1525.65 2285.71 1527.57 Q2284.92 1529.47 2282.82 1532.07 Q2282.24 1532.74 2279.14 1535.95 Q2276.03 1539.15 2270.39 1544.91 Z" fill="#000000" fill-rule="nonzero" fill-opacity="1"></path><path clip-path="url(#clip120)" d="M2306.52 1517.37 Q2302.91 1517.37 2301.08 1520.93 Q2299.27 1524.47 2299.27 1531.6 Q2299.27 1538.71 2301.08 1542.27 Q2302.91 1545.82 2306.52 1545.82 Q2310.15 1545.82 2311.96 1542.27 Q2313.79 1538.71 2313.79 1531.6 Q2313.79 1524.47 2311.96 1520.93 Q2310.15 1517.37 2306.52 1517.37 M2306.52 1513.66 Q2312.33 1513.66 2315.39 1518.27 Q2318.46 1522.85 2318.46 1531.6 Q2318.46 1540.33 2315.39 1544.94 Q2312.33 1549.52 2306.52 1549.52 Q2300.71 1549.52 2297.63 1544.94 Q2294.57 1540.33 2294.57 1531.6 Q2294.57 1522.85 2297.63 1518.27 Q2300.71 1513.66 2306.52 1513.66 Z" fill="#000000" fill-rule="nonzero" fill-opacity="1"></path><polyline clip-path="url(#clip122)" style="stroke:#000000; stroke-linecap:round; stroke-linejoin:round; stroke-width:2; stroke-opacity:0.1; fill:none" points="192.339,1232.04 2352.76,1232.04 "></polyline>
<polyline clip-path="url(#clip122)" style="stroke:#000000; stroke-linecap:round; stroke-linejoin:round; stroke-width:2; stroke-opacity:0.1; fill:none" points="192.339,939.262 2352.76,939.262 "></polyline>
<polyline clip-path="url(#clip122)" style="stroke:#000000; stroke-linecap:round; stroke-linejoin:round; stroke-width:2; stroke-opacity:0.1; fill:none" points="192.339,646.481 2352.76,646.481 "></polyline>
<polyline clip-path="url(#clip122)" style="stroke:#000000; stroke-linecap:round; stroke-linejoin:round; stroke-width:2; stroke-opacity:0.1; fill:none" points="192.339,353.7 2352.76,353.7 "></polyline>
<polyline clip-path="url(#clip122)" style="stroke:#000000; stroke-linecap:round; stroke-linejoin:round; stroke-width:2; stroke-opacity:0.1; fill:none" points="192.339,60.9188 2352.76,60.9188 "></polyline>
<polyline clip-path="url(#clip120)" style="stroke:#000000; stroke-linecap:round; stroke-linejoin:round; stroke-width:4; stroke-opacity:1; fill:none" points="192.339,1486.45 192.339,47.2441 "></polyline>
<polyline clip-path="url(#clip120)" style="stroke:#000000; stroke-linecap:round; stroke-linejoin:round; stroke-width:4; stroke-opacity:1; fill:none" points="192.339,1232.04 211.236,1232.04 "></polyline>
<polyline clip-path="url(#clip120)" style="stroke:#000000; stroke-linecap:round; stroke-linejoin:round; stroke-width:4; stroke-opacity:1; fill:none" points="192.339,939.262 211.236,939.262 "></polyline>
<polyline clip-path="url(#clip120)" style="stroke:#000000; stroke-linecap:round; stroke-linejoin:round; stroke-width:4; stroke-opacity:1; fill:none" points="192.339,646.481 211.236,646.481 "></polyline>
<polyline clip-path="url(#clip120)" style="stroke:#000000; stroke-linecap:round; stroke-linejoin:round; stroke-width:4; stroke-opacity:1; fill:none" points="192.339,353.7 211.236,353.7 "></polyline>
<polyline clip-path="url(#clip120)" style="stroke:#000000; stroke-linecap:round; stroke-linejoin:round; stroke-width:4; stroke-opacity:1; fill:none" points="192.339,60.9188 211.236,60.9188 "></polyline>
<path clip-path="url(#clip120)" d="M50.9921 1232.49 L80.6679 1232.49 L80.6679 1236.43 L50.9921 1236.43 L50.9921 1232.49 Z" fill="#000000" fill-rule="nonzero" fill-opacity="1"></path><path clip-path="url(#clip120)" d="M100.76 1217.84 Q97.1493 1217.84 95.3206 1221.41 Q93.515 1224.95 93.515 1232.08 Q93.515 1239.18 95.3206 1242.75 Q97.1493 1246.29 100.76 1246.29 Q104.395 1246.29 106.2 1242.75 Q108.029 1239.18 108.029 1232.08 Q108.029 1224.95 106.2 1221.41 Q104.395 1217.84 100.76 1217.84 M100.76 1214.14 Q106.571 1214.14 109.626 1218.74 Q112.705 1223.33 112.705 1232.08 Q112.705 1240.8 109.626 1245.41 Q106.571 1249.99 100.76 1249.99 Q94.9502 1249.99 91.8715 1245.41 Q88.816 1240.8 88.816 1232.08 Q88.816 1223.33 91.8715 1218.74 Q94.9502 1214.14 100.76 1214.14 Z" fill="#000000" fill-rule="nonzero" fill-opacity="1"></path><path clip-path="url(#clip120)" d="M120.922 1243.44 L125.807 1243.44 L125.807 1249.32 L120.922 1249.32 L120.922 1243.44 Z" fill="#000000" fill-rule="nonzero" fill-opacity="1"></path><path clip-path="url(#clip120)" d="M140.019 1245.39 L156.339 1245.39 L156.339 1249.32 L134.394 1249.32 L134.394 1245.39 Q137.056 1242.63 141.64 1238 Q146.246 1233.35 147.427 1232.01 Q149.672 1229.49 150.552 1227.75 Q151.455 1225.99 151.455 1224.3 Q151.455 1221.55 149.51 1219.81 Q147.589 1218.07 144.487 1218.07 Q142.288 1218.07 139.834 1218.84 Q137.404 1219.6 134.626 1221.15 L134.626 1216.43 Q137.45 1215.3 139.904 1214.72 Q142.357 1214.14 144.394 1214.14 Q149.765 1214.14 152.959 1216.82 Q156.154 1219.51 156.154 1224 Q156.154 1226.13 155.343 1228.05 Q154.556 1229.95 152.45 1232.54 Q151.871 1233.21 148.769 1236.43 Q145.668 1239.62 140.019 1245.39 Z" fill="#000000" fill-rule="nonzero" fill-opacity="1"></path><path clip-path="url(#clip120)" d="M99.1632 925.061 Q95.5521 925.061 93.7234 928.625 Q91.9178 932.167 91.9178 939.297 Q91.9178 946.403 93.7234 949.968 Q95.5521 953.509 99.1632 953.509 Q102.797 953.509 104.603 949.968 Q106.432 946.403 106.432 939.297 Q106.432 932.167 104.603 928.625 Q102.797 925.061 99.1632 925.061 M99.1632 921.357 Q104.973 921.357 108.029 925.963 Q111.108 930.547 111.108 939.297 Q111.108 948.023 108.029 952.63 Q104.973 957.213 99.1632 957.213 Q93.353 957.213 90.2743 952.63 Q87.2188 948.023 87.2188 939.297 Q87.2188 930.547 90.2743 925.963 Q93.353 921.357 99.1632 921.357 Z" fill="#000000" fill-rule="nonzero" fill-opacity="1"></path><path clip-path="url(#clip120)" d="M119.325 950.662 L124.209 950.662 L124.209 956.542 L119.325 956.542 L119.325 950.662 Z" fill="#000000" fill-rule="nonzero" fill-opacity="1"></path><path clip-path="url(#clip120)" d="M144.394 925.061 Q140.783 925.061 138.955 928.625 Q137.149 932.167 137.149 939.297 Q137.149 946.403 138.955 949.968 Q140.783 953.509 144.394 953.509 Q148.029 953.509 149.834 949.968 Q151.663 946.403 151.663 939.297 Q151.663 932.167 149.834 928.625 Q148.029 925.061 144.394 925.061 M144.394 921.357 Q150.205 921.357 153.26 925.963 Q156.339 930.547 156.339 939.297 Q156.339 948.023 153.26 952.63 Q150.205 957.213 144.394 957.213 Q138.584 957.213 135.506 952.63 Q132.45 948.023 132.45 939.297 Q132.45 930.547 135.506 925.963 Q138.584 921.357 144.394 921.357 Z" fill="#000000" fill-rule="nonzero" fill-opacity="1"></path><path clip-path="url(#clip120)" d="M100.76 632.28 Q97.1493 632.28 95.3206 635.844 Q93.515 639.386 93.515 646.516 Q93.515 653.622 95.3206 657.187 Q97.1493 660.728 100.76 660.728 Q104.395 660.728 106.2 657.187 Q108.029 653.622 108.029 646.516 Q108.029 639.386 106.2 635.844 Q104.395 632.28 100.76 632.28 M100.76 628.576 Q106.571 628.576 109.626 633.182 Q112.705 637.766 112.705 646.516 Q112.705 655.242 109.626 659.849 Q106.571 664.432 100.76 664.432 Q94.9502 664.432 91.8715 659.849 Q88.816 655.242 88.816 646.516 Q88.816 637.766 91.8715 633.182 Q94.9502 628.576 100.76 628.576 Z" fill="#000000" fill-rule="nonzero" fill-opacity="1"></path><path clip-path="url(#clip120)" d="M120.922 657.881 L125.807 657.881 L125.807 663.761 L120.922 663.761 L120.922 657.881 Z" fill="#000000" fill-rule="nonzero" fill-opacity="1"></path><path clip-path="url(#clip120)" d="M140.019 659.826 L156.339 659.826 L156.339 663.761 L134.394 663.761 L134.394 659.826 Q137.056 657.071 141.64 652.441 Q146.246 647.789 147.427 646.446 Q149.672 643.923 150.552 642.187 Q151.455 640.428 151.455 638.738 Q151.455 635.983 149.51 634.247 Q147.589 632.511 144.487 632.511 Q142.288 632.511 139.834 633.275 Q137.404 634.039 134.626 635.59 L134.626 630.868 Q137.45 629.733 139.904 629.155 Q142.357 628.576 144.394 628.576 Q149.765 628.576 152.959 631.261 Q156.154 633.946 156.154 638.437 Q156.154 640.567 155.343 642.488 Q154.556 644.386 152.45 646.979 Q151.871 647.65 148.769 650.867 Q145.668 654.062 140.019 659.826 Z" fill="#000000" fill-rule="nonzero" fill-opacity="1"></path><path clip-path="url(#clip120)" d="M98.6771 339.499 Q95.066 339.499 93.2373 343.063 Q91.4317 346.605 91.4317 353.735 Q91.4317 360.841 93.2373 364.406 Q95.066 367.947 98.6771 367.947 Q102.311 367.947 104.117 364.406 Q105.946 360.841 105.946 353.735 Q105.946 346.605 104.117 343.063 Q102.311 339.499 98.6771 339.499 M98.6771 335.795 Q104.487 335.795 107.543 340.401 Q110.621 344.985 110.621 353.735 Q110.621 362.461 107.543 367.068 Q104.487 371.651 98.6771 371.651 Q92.8669 371.651 89.7882 367.068 Q86.7327 362.461 86.7327 353.735 Q86.7327 344.985 89.7882 340.401 Q92.8669 335.795 98.6771 335.795 Z" fill="#000000" fill-rule="nonzero" fill-opacity="1"></path><path clip-path="url(#clip120)" d="M118.839 365.1 L123.723 365.1 L123.723 370.98 L118.839 370.98 L118.839 365.1 Z" fill="#000000" fill-rule="nonzero" fill-opacity="1"></path><path clip-path="url(#clip120)" d="M146.756 340.494 L134.95 358.943 L146.756 358.943 L146.756 340.494 M145.529 336.42 L151.408 336.42 L151.408 358.943 L156.339 358.943 L156.339 362.832 L151.408 362.832 L151.408 370.98 L146.756 370.98 L146.756 362.832 L131.154 362.832 L131.154 358.318 L145.529 336.42 Z" fill="#000000" fill-rule="nonzero" fill-opacity="1"></path><path clip-path="url(#clip120)" d="M99.0011 46.7175 Q95.39 46.7175 93.5613 50.2823 Q91.7558 53.824 91.7558 60.9536 Q91.7558 68.06 93.5613 71.6248 Q95.39 75.1665 99.0011 75.1665 Q102.635 75.1665 104.441 71.6248 Q106.27 68.06 106.27 60.9536 Q106.27 53.824 104.441 50.2823 Q102.635 46.7175 99.0011 46.7175 M99.0011 43.0139 Q104.811 43.0139 107.867 47.6203 Q110.946 52.2036 110.946 60.9536 Q110.946 69.6804 107.867 74.2868 Q104.811 78.8701 99.0011 78.8701 Q93.191 78.8701 90.1123 74.2868 Q87.0567 69.6804 87.0567 60.9536 Q87.0567 52.2036 90.1123 47.6203 Q93.191 43.0139 99.0011 43.0139 Z" fill="#000000" fill-rule="nonzero" fill-opacity="1"></path><path clip-path="url(#clip120)" d="M119.163 72.3193 L124.047 72.3193 L124.047 78.1988 L119.163 78.1988 L119.163 72.3193 Z" fill="#000000" fill-rule="nonzero" fill-opacity="1"></path><path clip-path="url(#clip120)" d="M144.811 59.0554 Q141.663 59.0554 139.811 61.2082 Q137.982 63.361 137.982 67.1109 Q137.982 70.8378 139.811 73.0137 Q141.663 75.1665 144.811 75.1665 Q147.959 75.1665 149.788 73.0137 Q151.64 70.8378 151.64 67.1109 Q151.64 63.361 149.788 61.2082 Q147.959 59.0554 144.811 59.0554 M154.093 44.4027 L154.093 48.662 Q152.334 47.8286 150.529 47.3888 Q148.746 46.949 146.987 46.949 Q142.357 46.949 139.904 50.074 Q137.473 53.199 137.126 59.5184 Q138.492 57.5045 140.552 56.4397 Q142.612 55.3517 145.089 55.3517 Q150.297 55.3517 153.306 58.523 Q156.339 61.6712 156.339 67.1109 Q156.339 72.435 153.191 75.6526 Q150.043 78.8701 144.811 78.8701 Q138.816 78.8701 135.644 74.2868 Q132.473 69.6804 132.473 60.9536 Q132.473 52.7592 136.362 47.8981 Q140.251 43.0139 146.802 43.0139 Q148.561 43.0139 150.343 43.3611 Q152.149 43.7083 154.093 44.4027 Z" fill="#000000" fill-rule="nonzero" fill-opacity="1"></path><polyline clip-path="url(#clip122)" style="stroke:#009af9; stroke-linecap:round; stroke-linejoin:round; stroke-width:4; stroke-opacity:1; fill:none" points="253.483,939.262 263.673,866.158 273.864,793.602 284.055,722.137 294.245,652.298 304.436,584.604 314.627,519.559 324.817,457.643 335.008,399.312 345.198,344.99 355.389,295.07 365.58,249.905 375.77,209.814 385.961,175.069 396.152,145.902 406.342,122.496 416.533,104.988 426.724,93.4684 436.914,87.9763 447.105,88.5031 457.296,94.9915 467.486,107.336 477.677,125.385 487.868,148.94 498.058,177.76 508.249,211.563 518.439,250.029 528.63,292.799 538.821,339.486 549.011,389.672 559.202,442.912 569.393,498.742 579.583,556.68 589.774,616.232 599.965,676.892 610.155,738.154 620.346,799.509 630.537,860.454 640.727,920.493 650.918,979.145 661.109,1035.94 671.299,1090.44 681.49,1142.23 691.68,1190.9 701.871,1236.11 712.062,1277.51 722.252,1314.83 732.443,1347.81 742.634,1376.24 752.824,1399.94 763.015,1418.81 773.206,1432.74 783.396,1441.71 793.587,1445.72 803.778,1444.81 813.968,1439.1 824.159,1428.69 834.35,1413.78 844.54,1394.58 854.731,1371.32 864.921,1344.3 875.112,1313.82 885.303,1280.23 895.493,1243.88 905.684,1205.16 915.875,1164.47 926.065,1122.22 936.256,1078.83 946.447,1034.74 956.637,990.355 966.828,946.117 977.019,902.44 987.209,859.732 997.4,818.387 1007.59,778.781 1017.78,741.271 1027.97,706.188 1038.16,673.837 1048.35,644.495 1058.54,618.404 1068.73,595.777 1078.93,576.788 1089.12,561.576 1099.31,550.245 1109.5,542.856 1119.69,539.437 1129.88,539.975 1140.07,544.419 1150.26,552.683 1160.45,564.645 1170.64,580.149 1180.83,599.005 1191.02,620.996 1201.21,645.875 1211.4,673.37 1221.59,703.186 1231.78,735.011 1241.98,768.514 1252.17,803.353 1262.36,839.175 1272.55,875.622 1282.74,912.333 1292.93,948.947 1303.12,985.108 1313.31,1020.47 1323.5,1054.69 1333.69,1087.45 1343.88,1118.44 1354.07,1147.38 1364.26,1174 1374.45,1198.06 1384.64,1219.35 1394.84,1237.68 1405.03,1252.91 1415.22,1264.91 1425.41,1273.59 1435.6,1278.89 1445.79,1280.79 1455.98,1279.3 1466.17,1274.47 1476.36,1266.37 1486.55,1255.1 1496.74,1240.8 1506.93,1223.64 1517.12,1203.8 1527.31,1181.51 1537.5,1157.01 1547.69,1130.54 1557.89,1102.39 1568.08,1072.84 1578.27,1042.2 1588.46,1010.78 1598.65,978.885 1608.84,946.841 1619.03,914.962 1629.22,883.561 1639.41,852.943 1649.6,823.404 1659.79,795.228 1669.98,768.681 1680.17,744.013 1690.36,721.456 1700.55,701.215 1710.75,683.475 1720.94,668.393 1731.13,656.1 1741.32,646.697 1751.51,640.257 1761.7,636.826 1771.89,636.415 1782.08,639.009 1792.27,644.563 1802.46,653.002 1812.65,664.224 1822.84,678.101 1833.03,694.478 1843.22,713.177 1853.41,733.999 1863.6,756.726 1873.8,781.119 1883.99,806.929 1894.18,833.891 1904.37,861.731 1914.56,890.17 1924.75,918.921 1934.94,947.7 1945.13,976.221 1955.32,1004.2 1965.51,1031.38 1975.7,1057.47 1985.89,1082.24 1996.08,1105.44 2006.27,1126.86 2016.46,1146.29 2026.66,1163.56 2036.85,1178.49 2047.04,1190.97 2057.23,1200.88 2067.42,1208.13 2077.61,1212.67 2087.8,1214.47 2097.99,1213.52 2108.18,1209.86 2118.37,1203.53 2128.56,1194.61 2138.75,1183.2 2148.94,1169.42 2159.13,1153.44 2169.32,1135.41 2179.51,1115.53 2189.71,1094 2199.9,1071.04 2210.09,1046.9 2220.28,1021.81 2230.47,996.035 2240.66,969.824 2250.85,943.444 2261.04,917.156 2271.23,891.221 2281.42,865.895 2291.61,841.425 "></polyline>
<polyline clip-path="url(#clip122)" style="stroke:#e26f46; stroke-linecap:round; stroke-linejoin:round; stroke-width:4; stroke-opacity:1; fill:none" points="253.483,939.262 263.673,937.434 273.864,931.967 284.055,922.916 294.245,910.372 304.436,894.46 314.627,875.34 324.817,853.203 335.008,828.272 345.198,800.797 355.389,771.054 365.58,739.345 375.77,705.99 385.961,671.328 396.152,635.713 406.342,599.508 416.533,563.085 426.724,526.823 436.914,491.097 447.105,456.282 457.296,422.746 467.486,390.848 477.677,360.933 487.868,333.33 498.058,308.348 508.249,286.274 518.439,267.369 528.63,251.868 538.821,239.976 549.011,231.863 559.202,227.67 569.393,227.501 579.583,231.423 589.774,239.469 599.965,251.633 610.155,267.872 620.346,288.109 630.537,312.228 640.727,340.079 650.918,371.479 661.109,406.213 671.299,444.034 681.49,484.669 691.68,527.818 701.871,573.16 712.062,620.352 722.252,669.035 732.443,718.837 742.634,769.375 752.824,820.259 763.015,871.095 773.206,921.49 783.396,971.056 793.587,1019.41 803.778,1066.18 813.968,1111 824.159,1153.54 834.35,1193.48 844.54,1230.51 854.731,1264.37 864.921,1294.81 875.112,1321.61 885.303,1344.59 895.493,1363.61 905.684,1378.54 915.875,1389.31 926.065,1395.88 936.256,1398.23 946.447,1396.41 956.637,1390.46 966.828,1380.51 977.019,1366.67 987.209,1349.13 997.4,1328.07 1007.59,1303.73 1017.78,1276.36 1027.97,1246.25 1038.16,1213.69 1048.35,1179.02 1058.54,1142.56 1068.73,1104.67 1078.93,1065.71 1089.12,1026.06 1099.31,986.067 1109.5,946.119 1119.69,906.581 1129.88,867.811 1140.07,830.161 1150.26,793.968 1160.45,759.554 1170.64,727.219 1180.83,697.245 1191.02,669.887 1201.21,645.376 1211.4,623.912 1221.59,605.668 1231.78,590.785 1241.98,579.369 1252.17,571.495 1262.36,567.206 1272.55,566.507 1282.74,569.374 1292.93,575.745 1303.12,585.53 1313.31,598.605 1323.5,614.818 1333.69,633.986 1343.88,655.902 1354.07,680.334 1364.26,707.028 1374.45,735.71 1384.64,766.09 1394.84,797.864 1405.03,830.717 1415.22,864.327 1425.41,898.366 1435.6,932.505 1445.79,966.416 1455.98,999.776 1466.17,1032.27 1476.36,1063.59 1486.55,1093.45 1496.74,1121.57 1506.93,1147.7 1517.12,1171.6 1527.31,1193.05 1537.5,1211.87 1547.69,1227.89 1557.89,1240.99 1568.08,1251.06 1578.27,1258.02 1588.46,1261.83 1598.65,1262.47 1608.84,1259.97 1619.03,1254.36 1629.22,1245.73 1639.41,1234.18 1649.6,1219.84 1659.79,1202.88 1669.98,1183.46 1680.17,1161.8 1690.36,1138.13 1700.55,1112.69 1710.75,1085.73 1720.94,1057.52 1731.13,1028.36 1741.32,998.531 1751.51,968.324 1761.7,938.038 1771.89,907.968 1782.08,878.405 1792.27,849.634 1802.46,821.929 1812.65,795.555 1822.84,770.759 1833.03,747.774 1843.22,726.811 1853.41,708.064 1863.6,691.702 1873.8,677.869 1883.99,666.685 1894.18,658.243 1904.37,652.61 1914.56,649.823 1924.75,649.893 1934.94,652.802 1945.13,658.505 1955.32,666.931 1965.51,677.98 1975.7,691.529 1985.89,707.432 1996.08,725.52 2006.27,745.602 2016.46,767.471 2026.66,790.903 2036.85,815.659 2047.04,841.489 2057.23,868.135 2067.42,895.33 2077.61,922.805 2087.8,950.289 2097.99,977.512 2108.18,1004.21 2118.37,1030.12 2128.56,1054.99 2138.75,1078.6 2148.94,1100.7 2159.13,1121.09 2169.32,1139.58 2179.51,1156 2189.71,1170.2 2199.9,1182.05 2210.09,1191.44 2220.28,1198.3 2230.47,1202.57 2240.66,1204.22 2250.85,1203.25 2261.04,1199.68 2271.23,1193.56 2281.42,1184.96 2291.61,1173.99 "></polyline>
<polyline clip-path="url(#clip122)" style="stroke:#3da44d; stroke-linecap:round; stroke-linejoin:round; stroke-width:4; stroke-opacity:1; fill:none" points="253.483,939.262 263.673,939.231 273.864,939.019 284.055,938.443 294.245,937.329 304.436,935.509 314.627,932.821 324.817,929.118 335.008,924.262 345.198,918.132 355.389,910.623 365.58,901.648 375.77,891.137 385.961,879.043 396.152,865.338 406.342,850.016 416.533,833.094 426.724,814.61 436.914,794.625 447.105,773.221 457.296,750.501 467.486,726.591 477.677,701.633 487.868,675.79 498.058,649.241 508.249,622.179 518.439,594.814 528.63,567.364 538.821,540.057 549.011,513.13 559.202,486.823 569.393,461.381 579.583,437.045 589.774,414.058 599.965,392.656 610.155,373.067 620.346,355.511 630.537,340.195 640.727,327.312 650.918,317.038 661.109,309.532 671.299,304.93 681.49,303.35 691.68,304.883 701.871,309.597 712.062,317.536 722.252,328.713 732.443,343.119 742.634,360.714 752.824,381.433 763.015,405.184 773.206,431.845 783.396,461.273 793.587,493.296 803.778,527.72 813.968,564.33 824.159,602.887 834.35,643.138 844.54,684.808 854.731,727.613 864.921,771.252 875.112,815.418 885.303,859.796 895.493,904.067 905.684,947.91 915.875,991.006 926.065,1033.04 936.256,1073.7 946.447,1112.7 956.637,1149.74 966.828,1184.55 977.019,1216.88 987.209,1246.49 997.4,1273.18 1007.59,1296.75 1017.78,1317.04 1027.97,1333.91 1038.16,1347.25 1048.35,1356.98 1058.54,1363.06 1068.73,1365.45 1078.93,1364.18 1089.12,1359.29 1099.31,1350.84 1109.5,1338.93 1119.69,1323.71 1129.88,1305.32 1140.07,1283.94 1150.26,1259.8 1160.45,1233.11 1170.64,1204.13 1180.83,1173.14 1191.02,1140.41 1201.21,1106.25 1211.4,1070.96 1221.59,1034.88 1231.78,998.314 1241.98,961.6 1252.17,925.062 1262.36,889.023 1272.55,853.8 1282.74,819.701 1292.93,787.021 1303.12,756.044 1313.31,727.033 1323.5,700.235 1333.69,675.874 1343.88,654.152 1354.07,635.244 1364.26,619.302 1374.45,606.446 1384.64,596.771 1394.84,590.341 1405.03,587.19 1415.22,587.323 1425.41,590.713 1435.6,597.305 1445.79,607.016 1455.98,619.732 1466.17,635.315 1476.36,653.6 1486.55,674.398 1496.74,697.498 1506.93,722.67 1517.12,749.665 1527.31,778.22 1537.5,808.058 1547.69,838.892 1557.89,870.427 1568.08,902.364 1578.27,934.402 1588.46,966.24 1598.65,997.582 1608.84,1028.14 1619.03,1057.62 1629.22,1085.77 1639.41,1112.32 1649.6,1137.04 1659.79,1159.71 1669.98,1180.12 1680.17,1198.09 1690.36,1213.48 1700.55,1226.16 1710.75,1236.02 1720.94,1242.98 1731.13,1247 1741.32,1248.07 1751.51,1246.17 1761.7,1241.37 1771.89,1233.71 1782.08,1223.29 1792.27,1210.22 1802.46,1194.64 1812.65,1176.73 1822.84,1156.66 1833.03,1134.63 1843.22,1110.87 1853.41,1085.62 1863.6,1059.12 1873.8,1031.65 1883.99,1003.45 1894.18,974.815 1904.37,946.014 1914.56,917.326 1924.75,889.025 1934.94,861.379 1945.13,834.65 1955.32,809.09 1965.51,784.938 1975.7,762.418 1985.89,741.736 1996.08,723.083 2006.27,706.626 2016.46,692.511 2026.66,680.862 2036.85,671.778 2047.04,665.333 2057.23,661.574 2067.42,660.524 2077.61,662.178 2087.8,666.506 2097.99,673.452 2108.18,682.936 2118.37,694.853 2128.56,709.075 2138.75,725.452 2148.94,743.816 2159.13,763.978 2169.32,785.735 2179.51,808.867 2189.71,833.144 2199.9,858.324 2210.09,884.16 2220.28,910.397 2230.47,936.78 2240.66,963.051 2250.85,988.955 2261.04,1014.24 2271.23,1038.68 2281.42,1062.02 2291.61,1084.04 "></polyline>
<polyline clip-path="url(#clip122)" style="stroke:#c271d2; stroke-linecap:round; stroke-linejoin:round; stroke-width:4; stroke-opacity:1; fill:none" points="253.483,939.262 263.673,939.261 273.864,939.256 284.055,939.231 294.245,939.165 304.436,939.027 314.627,938.777 324.817,938.369 335.008,937.75 345.198,936.86 355.389,935.636 365.58,934.01 375.77,931.909 385.961,929.262 396.152,925.995 406.342,922.034 416.533,917.31 426.724,911.755 436.914,905.304 447.105,897.902 457.296,889.495 467.486,880.043 477.677,869.511 487.868,857.875 498.058,845.123 508.249,831.252 518.439,816.275 528.63,800.215 538.821,783.109 549.011,765.008 559.202,745.976 569.393,726.091 579.583,705.444 589.774,684.139 599.965,662.292 610.155,640.032 620.346,617.497 630.537,594.836 640.727,572.208 650.918,549.777 661.109,527.716 671.299,506.2 681.49,485.41 691.68,465.526 701.871,446.731 712.062,429.204 722.252,413.121 732.443,398.653 742.634,385.964 752.824,375.21 763.015,366.535 773.206,360.073 783.396,355.942 793.587,354.248 803.778,355.079 813.968,358.506 824.159,364.581 834.35,373.336 844.54,384.785 854.731,398.919 864.921,415.709 875.112,435.103 885.303,457.031 895.493,481.399 905.684,508.092 915.875,536.977 926.065,567.899 936.256,600.686 946.447,635.148 956.637,671.08 966.828,708.26 977.019,746.457 987.209,785.425 997.4,824.911 1007.59,864.653 1017.78,904.385 1027.97,943.838 1038.16,982.742 1048.35,1020.83 1058.54,1057.83 1068.73,1093.5 1078.93,1127.57 1089.12,1159.8 1099.31,1189.98 1109.5,1217.88 1119.69,1243.32 1129.88,1266.1 1140.07,1286.07 1150.26,1303.1 1160.45,1317.07 1170.64,1327.89 1180.83,1335.48 1191.02,1339.82 1201.21,1340.88 1211.4,1338.68 1221.59,1333.24 1231.78,1324.65 1241.98,1312.97 1252.17,1298.33 1262.36,1280.87 1272.55,1260.74 1282.74,1238.12 1292.93,1213.23 1303.12,1186.26 1313.31,1157.48 1323.5,1127.12 1333.69,1095.45 1343.88,1062.75 1354.07,1029.29 1364.26,995.371 1374.45,961.278 1384.64,927.304 1394.84,893.738 1405.03,860.866 1415.22,828.965 1425.41,798.306 1435.6,769.145 1445.79,741.725 1455.98,716.275 1466.17,693.004 1476.36,672.101 1486.55,653.734 1496.74,638.05 1506.93,625.17 1517.12,615.188 1527.31,608.177 1537.5,604.18 1547.69,603.213 1557.89,605.266 1568.08,610.304 1578.27,618.262 1588.46,629.052 1598.65,642.56 1608.84,658.648 1619.03,677.157 1629.22,697.904 1639.41,720.691 1649.6,745.298 1659.79,771.493 1669.98,799.028 1680.17,827.647 1690.36,857.083 1700.55,887.063 1710.75,917.311 1720.94,947.55 1731.13,977.503 1741.32,1006.9 1751.51,1035.47 1761.7,1062.96 1771.89,1089.12 1782.08,1113.73 1792.27,1136.55 1802.46,1157.4 1812.65,1176.09 1822.84,1192.46 1833.03,1206.38 1843.22,1217.72 1853.41,1226.39 1863.6,1232.34 1873.8,1235.52 1883.99,1235.91 1894.18,1233.53 1904.37,1228.41 1914.56,1220.63 1924.75,1210.25 1934.94,1197.4 1945.13,1182.21 1955.32,1164.82 1965.51,1145.43 1975.7,1124.21 1985.89,1101.38 1996.08,1077.15 2006.27,1051.77 2016.46,1025.47 2026.66,998.518 2036.85,971.156 2047.04,943.65 2057.23,916.257 2067.42,889.237 2077.61,862.841 2087.8,837.316 2097.99,812.898 2108.18,789.812 2118.37,768.27 2128.56,748.468 2138.75,730.585 2148.94,714.78 2159.13,701.194 2169.32,689.944 2179.51,681.126 2189.71,674.811 2199.9,671.049 2210.09,669.862 2220.28,671.249 2230.47,675.186 2240.66,681.622 2250.85,690.485 2261.04,701.679 2271.23,715.087 2281.42,730.57 2291.61,747.972 "></polyline>
<polyline clip-path="url(#clip122)" style="stroke:#ac8d18; stroke-linecap:round; stroke-linejoin:round; stroke-width:4; stroke-opacity:1; fill:none" points="253.483,939.262 263.673,939.262 273.864,939.262 284.055,939.261 294.245,939.258 304.436,939.25 314.627,939.233 324.817,939.199 335.008,939.14 345.198,939.044 355.389,938.896 365.58,938.678 375.77,938.369 385.961,937.943 396.152,937.373 406.342,936.628 416.533,935.672 426.724,934.468 436.914,932.976 447.105,931.154 457.296,928.957 467.486,926.338 477.677,923.251 487.868,919.65 498.058,915.486 508.249,910.713 518.439,905.289 528.63,899.169 538.821,892.316 549.011,884.694 559.202,876.272 569.393,867.026 579.583,856.935 589.774,845.986 599.965,834.175 610.155,821.502 620.346,807.979 630.537,793.625 640.727,778.467 650.918,762.543 661.109,745.9 671.299,728.594 681.49,710.693 691.68,692.272 701.871,673.415 712.062,654.218 722.252,634.782 732.443,615.219 742.634,595.646 752.824,576.189 763.015,556.977 773.206,538.146 783.396,519.836 793.587,502.189 803.778,485.348 813.968,469.459 824.159,454.663 834.35,441.104 844.54,428.92 854.731,418.243 864.921,409.201 875.112,401.914 885.303,396.495 895.493,393.043 905.684,391.652 915.875,392.398 926.065,395.347 936.256,400.551 946.447,408.046 956.637,417.852 966.828,429.975 977.019,444.4 987.209,461.1 997.4,480.026 1007.59,501.114 1017.78,524.283 1027.97,549.434 1038.16,576.45 1048.35,605.202 1058.54,635.54 1068.73,667.305 1078.93,700.321 1089.12,734.4 1099.31,769.344 1109.5,804.945 1119.69,840.986 1129.88,877.243 1140.07,913.488 1150.26,949.49 1160.45,985.016 1170.64,1019.83 1180.83,1053.71 1191.02,1086.43 1201.21,1117.76 1211.4,1147.49 1221.59,1175.42 1231.78,1201.36 1241.98,1225.14 1252.17,1246.58 1262.36,1265.55 1272.55,1281.91 1282.74,1295.55 1292.93,1306.38 1303.12,1314.33 1313.31,1319.35 1323.5,1321.42 1333.69,1320.53 1343.88,1316.7 1354.07,1309.97 1364.26,1300.4 1374.45,1288.09 1384.64,1273.13 1394.84,1255.67 1405.03,1235.83 1415.22,1213.8 1425.41,1189.75 1435.6,1163.9 1445.79,1136.44 1455.98,1107.61 1466.17,1077.66 1476.36,1046.82 1486.55,1015.35 1496.74,983.51 1506.93,951.566 1517.12,919.779 1527.31,888.409 1537.5,857.715 1547.69,827.947 1557.89,799.35 1568.08,772.155 1578.27,746.583 1588.46,722.842 1598.65,701.123 1608.84,681.598 1619.03,664.421 1629.22,649.728 1639.41,637.631 1649.6,628.219 1659.79,621.56 1669.98,617.697 1680.17,616.65 1690.36,618.412 1700.55,622.956 1710.75,630.226 1720.94,640.147 1731.13,652.619 1741.32,667.52 1751.51,684.708 1761.7,704.021 1771.89,725.279 1782.08,748.286 1792.27,772.832 1802.46,798.69 1812.65,825.628 1822.84,853.401 1833.03,881.76 1843.22,910.449 1853.41,939.212 1863.6,967.793 1873.8,995.938 1883.99,1023.4 1894.18,1049.93 1904.37,1075.3 1914.56,1099.29 1924.75,1121.69 1934.94,1142.3 1945.13,1160.96 1955.32,1177.49 1965.51,1191.76 1975.7,1203.66 1985.89,1213.08 1996.08,1219.95 2006.27,1224.23 2016.46,1225.88 2026.66,1224.91 2036.85,1221.33 2047.04,1215.19 2057.23,1206.55 2067.42,1195.52 2077.61,1182.19 2087.8,1166.71 2097.99,1149.22 2108.18,1129.9 2118.37,1108.92 2128.56,1086.5 2138.75,1062.83 2148.94,1038.16 2159.13,1012.7 2169.32,986.696 2179.51,960.393 2189.71,934.032 2199.9,907.859 2210.09,882.114 2220.28,857.033 2230.47,832.847 2240.66,809.775 2250.85,788.027 2261.04,767.799 2271.23,749.272 2281.42,732.611 2291.61,717.964 "></polyline>
<path clip-path="url(#clip120)" d="M2010.56 406.258 L2280.74 406.258 L2280.74 95.2176 L2010.56 95.2176  Z" fill="#ffffff" fill-rule="evenodd" fill-opacity="1"></path>
<polyline clip-path="url(#clip120)" style="stroke:#000000; stroke-linecap:round; stroke-linejoin:round; stroke-width:4; stroke-opacity:1; fill:none" points="2010.56,406.258 2280.74,406.258 2280.74,95.2176 2010.56,95.2176 2010.56,406.258 "></polyline>
<polyline clip-path="url(#clip120)" style="stroke:#009af9; stroke-linecap:round; stroke-linejoin:round; stroke-width:4; stroke-opacity:1; fill:none" points="2034.56,147.058 2178.59,147.058 "></polyline>
<path clip-path="url(#clip120)" d="M2216.44 166.745 Q2214.63 171.375 2212.92 172.787 Q2211.21 174.199 2208.33 174.199 L2204.93 174.199 L2204.93 170.634 L2207.43 170.634 Q2209.19 170.634 2210.16 169.8 Q2211.14 168.967 2212.32 165.865 L2213.08 163.921 L2202.59 138.412 L2207.11 138.412 L2215.21 158.689 L2223.31 138.412 L2227.83 138.412 L2216.44 166.745 Z" fill="#000000" fill-rule="nonzero" fill-opacity="1"></path><path clip-path="url(#clip120)" d="M2235.12 160.402 L2242.76 160.402 L2242.76 134.037 L2234.45 135.703 L2234.45 131.444 L2242.71 129.778 L2247.39 129.778 L2247.39 160.402 L2255.02 160.402 L2255.02 164.338 L2235.12 164.338 L2235.12 160.402 Z" fill="#000000" fill-rule="nonzero" fill-opacity="1"></path><polyline clip-path="url(#clip120)" style="stroke:#e26f46; stroke-linecap:round; stroke-linejoin:round; stroke-width:4; stroke-opacity:1; fill:none" points="2034.56,198.898 2178.59,198.898 "></polyline>
<path clip-path="url(#clip120)" d="M2216.44 218.585 Q2214.63 223.215 2212.92 224.627 Q2211.21 226.039 2208.33 226.039 L2204.93 226.039 L2204.93 222.474 L2207.43 222.474 Q2209.19 222.474 2210.16 221.64 Q2211.14 220.807 2212.32 217.705 L2213.08 215.761 L2202.59 190.252 L2207.11 190.252 L2215.21 210.529 L2223.31 190.252 L2227.83 190.252 L2216.44 218.585 Z" fill="#000000" fill-rule="nonzero" fill-opacity="1"></path><path clip-path="url(#clip120)" d="M2238.33 212.242 L2254.65 212.242 L2254.65 216.178 L2232.71 216.178 L2232.71 212.242 Q2235.37 209.488 2239.96 204.858 Q2244.56 200.205 2245.74 198.863 Q2247.99 196.34 2248.87 194.604 Q2249.77 192.844 2249.77 191.155 Q2249.77 188.4 2247.83 186.664 Q2245.9 184.928 2242.8 184.928 Q2240.6 184.928 2238.15 185.692 Q2235.72 186.455 2232.94 188.006 L2232.94 183.284 Q2235.77 182.15 2238.22 181.571 Q2240.67 180.993 2242.71 180.993 Q2248.08 180.993 2251.27 183.678 Q2254.47 186.363 2254.47 190.854 Q2254.47 192.983 2253.66 194.905 Q2252.87 196.803 2250.77 199.395 Q2250.19 200.067 2247.08 203.284 Q2243.98 206.479 2238.33 212.242 Z" fill="#000000" fill-rule="nonzero" fill-opacity="1"></path><polyline clip-path="url(#clip120)" style="stroke:#3da44d; stroke-linecap:round; stroke-linejoin:round; stroke-width:4; stroke-opacity:1; fill:none" points="2034.56,250.738 2178.59,250.738 "></polyline>
<path clip-path="url(#clip120)" d="M2216.44 270.425 Q2214.63 275.055 2212.92 276.467 Q2211.21 277.879 2208.33 277.879 L2204.93 277.879 L2204.93 274.314 L2207.43 274.314 Q2209.19 274.314 2210.16 273.48 Q2211.14 272.647 2212.32 269.545 L2213.08 267.601 L2202.59 242.092 L2207.11 242.092 L2215.21 262.369 L2223.31 242.092 L2227.83 242.092 L2216.44 270.425 Z" fill="#000000" fill-rule="nonzero" fill-opacity="1"></path><path clip-path="url(#clip120)" d="M2248.47 249.383 Q2251.83 250.101 2253.7 252.369 Q2255.6 254.638 2255.6 257.971 Q2255.6 263.087 2252.08 265.888 Q2248.57 268.689 2242.08 268.689 Q2239.91 268.689 2237.59 268.249 Q2235.3 267.832 2232.85 266.976 L2232.85 262.462 Q2234.79 263.596 2237.11 264.175 Q2239.42 264.754 2241.95 264.754 Q2246.34 264.754 2248.64 263.018 Q2250.95 261.281 2250.95 257.971 Q2250.95 254.916 2248.8 253.203 Q2246.67 251.467 2242.85 251.467 L2238.82 251.467 L2238.82 247.624 L2243.03 247.624 Q2246.48 247.624 2248.31 246.258 Q2250.14 244.87 2250.14 242.277 Q2250.14 239.615 2248.24 238.203 Q2246.37 236.768 2242.85 236.768 Q2240.93 236.768 2238.73 237.184 Q2236.53 237.601 2233.89 238.481 L2233.89 234.314 Q2236.55 233.573 2238.87 233.203 Q2241.21 232.833 2243.27 232.833 Q2248.59 232.833 2251.69 235.263 Q2254.79 237.67 2254.79 241.791 Q2254.79 244.661 2253.15 246.652 Q2251.51 248.62 2248.47 249.383 Z" fill="#000000" fill-rule="nonzero" fill-opacity="1"></path><polyline clip-path="url(#clip120)" style="stroke:#c271d2; stroke-linecap:round; stroke-linejoin:round; stroke-width:4; stroke-opacity:1; fill:none" points="2034.56,302.578 2178.59,302.578 "></polyline>
<path clip-path="url(#clip120)" d="M2216.44 322.265 Q2214.63 326.895 2212.92 328.307 Q2211.21 329.719 2208.33 329.719 L2204.93 329.719 L2204.93 326.154 L2207.43 326.154 Q2209.19 326.154 2210.16 325.32 Q2211.14 324.487 2212.32 321.385 L2213.08 319.441 L2202.59 293.932 L2207.11 293.932 L2215.21 314.209 L2223.31 293.932 L2227.83 293.932 L2216.44 322.265 Z" fill="#000000" fill-rule="nonzero" fill-opacity="1"></path><path clip-path="url(#clip120)" d="M2247.15 289.372 L2235.35 307.821 L2247.15 307.821 L2247.15 289.372 M2245.93 285.298 L2251.81 285.298 L2251.81 307.821 L2256.74 307.821 L2256.74 311.709 L2251.81 311.709 L2251.81 319.858 L2247.15 319.858 L2247.15 311.709 L2231.55 311.709 L2231.55 307.196 L2245.93 285.298 Z" fill="#000000" fill-rule="nonzero" fill-opacity="1"></path><polyline clip-path="url(#clip120)" style="stroke:#ac8d18; stroke-linecap:round; stroke-linejoin:round; stroke-width:4; stroke-opacity:1; fill:none" points="2034.56,354.418 2178.59,354.418 "></polyline>
<path clip-path="url(#clip120)" d="M2216.44 374.105 Q2214.63 378.735 2212.92 380.147 Q2211.21 381.559 2208.33 381.559 L2204.93 381.559 L2204.93 377.994 L2207.43 377.994 Q2209.19 377.994 2210.16 377.16 Q2211.14 376.327 2212.32 373.225 L2213.08 371.281 L2202.59 345.772 L2207.11 345.772 L2215.21 366.049 L2223.31 345.772 L2227.83 345.772 L2216.44 374.105 Z" fill="#000000" fill-rule="nonzero" fill-opacity="1"></path><path clip-path="url(#clip120)" d="M2234.35 337.138 L2252.71 337.138 L2252.71 341.073 L2238.64 341.073 L2238.64 349.545 Q2239.65 349.198 2240.67 349.036 Q2241.69 348.85 2242.71 348.85 Q2248.5 348.85 2251.88 352.022 Q2255.26 355.193 2255.26 360.61 Q2255.26 366.188 2251.78 369.29 Q2248.31 372.369 2241.99 372.369 Q2239.82 372.369 2237.55 371.998 Q2235.3 371.628 2232.89 370.887 L2232.89 366.188 Q2234.98 367.323 2237.2 367.878 Q2239.42 368.434 2241.9 368.434 Q2245.9 368.434 2248.24 366.327 Q2250.58 364.221 2250.58 360.61 Q2250.58 356.999 2248.24 354.892 Q2245.9 352.786 2241.9 352.786 Q2240.02 352.786 2238.15 353.202 Q2236.3 353.619 2234.35 354.499 L2234.35 337.138 Z" fill="#000000" fill-rule="nonzero" fill-opacity="1"></path></svg>